<?xml version="1.0" encoding="UTF-8" standalone="no"?>
<!-- Created with Inkscape (http://www.inkscape.org/) -->

<svg
   xmlns:dc="http://purl.org/dc/elements/1.1/"
   xmlns:cc="http://creativecommons.org/ns#"
   xmlns:rdf="http://www.w3.org/1999/02/22-rdf-syntax-ns#"
   xmlns:svg="http://www.w3.org/2000/svg"
   xmlns="http://www.w3.org/2000/svg"
   xmlns:sodipodi="http://sodipodi.sourceforge.net/DTD/sodipodi-0.dtd"
   xmlns:inkscape="http://www.inkscape.org/namespaces/inkscape"
   width="521.78125"
   height="508.78125"
   id="svg4811"
   version="1.1"
   inkscape:version="0.48.4 r9939"
   sodipodi:docname="teletype_clean.svg">
  <defs
     id="defs4813" />
  <sodipodi:namedview
     id="base"
     pagecolor="#ffffff"
     bordercolor="#666666"
     borderopacity="1.0"
     inkscape:pageopacity="0.0"
     inkscape:pageshadow="2"
     inkscape:zoom="0.49497475"
     inkscape:cx="175.17634"
     inkscape:cy="214.39063"
     inkscape:document-units="px"
     inkscape:current-layer="layer1"
     showgrid="false"
     inkscape:window-width="1368"
     inkscape:window-height="713"
     inkscape:window-x="0"
     inkscape:window-y="30"
     inkscape:window-maximized="1"
     fit-margin-top="10"
     fit-margin-left="10"
     fit-margin-right="10"
     fit-margin-bottom="10" />
  <metadata
     id="metadata4816">
    <rdf:RDF>
      <cc:Work
         rdf:about="">
        <dc:format>image/svg+xml</dc:format>
        <dc:type
           rdf:resource="http://purl.org/dc/dcmitype/StillImage" />
        <dc:title></dc:title>
      </cc:Work>
    </rdf:RDF>
  </metadata>
  <g
     inkscape:label="Capa 1"
     inkscape:groupmode="layer"
     id="layer1"
     transform="translate(-124.82366,-237.97156)">
    <path
       style="fill:#892ca0;fill-opacity:1;stroke:none"
       d="M 170.59375 10 C 164.03921 10 158.75 13.19845 158.75 17.15625 L 158.75 48 L 100.96875 48 C 73.11099 48 49.1964 63.66534 37.125 94.9375 C 37.125 94.9375 10 140.11248 10 165.21875 L 10 411.78125 C 10 439.13945 24.92596 462.12365 45.5625 469.65625 C 42.87796 485.50748 59.88628 498.78125 76.3125 498.78125 L 445.5 498.78125 C 461.92659 498.78125 478.90421 485.50794 476.21875 469.65625 C 496.85528 462.12365 511.78125 439.13945 511.78125 411.78125 L 511.78125 165.21875 C 511.78125 140.11248 484.65625 94.9375 484.65625 94.9375 C 472.58485 63.66534 448.67026 48 420.8125 48 L 364.46875 48 L 364.46875 17.15625 C 364.46875 13.19845 359.21079 10 352.65625 10 L 170.59375 10 z M 178.59375 18 L 344.65625 18 C 351.21079 18 356.46875 21.19845 356.46875 25.15625 L 356.46875 101.3125 L 166.75 101.3125 L 166.75 25.15625 C 166.75 21.19845 172.03921 18 178.59375 18 z M 155.59375 98 L 158.75 98 L 158.75 110 L 364.46875 110 L 364.46875 98 L 366.1875 98 C 372.74203 98 378.03125 102.13697 378.03125 107.28125 C 378.03125 112.42554 372.74203 116.5625 366.1875 116.5625 L 155.59375 116.5625 C 149.03921 116.5625 143.75 112.42554 143.75 107.28125 C 143.75 102.13697 149.03921 98 155.59375 98 z M 152.78125 171.71875 L 482.78125 171.71875 C 495.72674 171.71875 506.1875 182.21076 506.1875 195.15625 L 506.1875 313.71875 C 506.1875 326.66424 495.72674 337.15625 482.78125 337.15625 L 152.78125 337.15625 C 139.83576 337.15625 129.34375 326.66424 129.34375 313.71875 L 129.34375 195.15625 C 129.34375 182.21076 139.83576 171.71875 152.78125 171.71875 z M 152.78125 175.71875 C 141.98257 175.71875 133.34375 184.35757 133.34375 195.15625 L 133.34375 313.71875 C 133.34375 324.51743 141.98257 333.15625 152.78125 333.15625 L 482.78125 333.15625 C 493.57993 333.15625 502.1875 324.51743 502.1875 313.71875 L 502.1875 195.15625 C 502.1875 184.35757 493.57993 175.71875 482.78125 175.71875 L 152.78125 175.71875 z M 413.0625 193.28125 C 446.78585 193.28125 474.1875 220.71415 474.1875 254.4375 C 474.1875 288.16085 446.78585 315.59375 413.0625 315.59375 C 379.33915 315.59375 351.90625 288.16085 351.90625 254.4375 C 351.90625 220.71415 379.33915 193.28125 413.0625 193.28125 z M 413.0625 202.0625 C 384.0792 202.0625 360.65625 225.4542 360.65625 254.4375 C 360.65625 283.42081 384.0792 306.8125 413.0625 306.8125 C 442.04581 306.8125 465.4375 283.42081 465.4375 254.4375 C 465.4375 225.4542 442.04581 202.0625 413.0625 202.0625 z M 435.3125 230.875 C 439.49807 230.88397 440.63952 233.93173 439.0625 238.4375 L 422.40625 286.0625 C 420.7729 290.7292 414.70267 291.20631 412.375 286.46875 L 404.4375 270.3125 C 403.35457 268.10837 401.49405 265.9611 399.8125 265.15625 L 384.34375 257.75 C 378.15551 254.78811 380.08679 249.29451 384.71875 247.6875 L 430.125 231.9375 C 432.20831 231.21472 433.91731 230.87201 435.3125 230.875 z M 127.375 367.09375 L 396.40625 367.09375 C 409.6247 367.09375 417.15996 378.11655 420.25 390.96875 L 432.90625 447.96875 C 435.99628 460.82094 422.2497 471.84375 409.03125 471.84375 L 112.78125 471.84375 C 99.56281 471.84375 85.81622 460.82094 88.90625 447.96875 L 103.53125 390.96875 C 106.6213 378.11655 114.15655 367.09375 127.375 367.09375 z M 151.90625 374.78125 C 143.79983 374.78125 137.21875 379.9371 137.21875 386.28125 C 137.21875 392.62541 143.79983 397.75 151.90625 397.75 C 160.01267 397.75 166.5625 392.62541 166.5625 386.28125 C 166.5625 379.9371 160.01267 374.78125 151.90625 374.78125 z M 195.5 374.78125 C 187.39358 374.78125 180.8125 379.9371 180.8125 386.28125 C 180.8125 392.62541 187.39358 397.75 195.5 397.75 C 203.60642 397.75 210.1875 392.62541 210.1875 386.28125 C 210.1875 379.9371 203.60642 374.78125 195.5 374.78125 z M 239.09375 374.78125 C 230.98733 374.78125 224.40625 379.9371 224.40625 386.28125 C 224.40625 392.62541 230.98733 397.75 239.09375 397.75 C 247.20017 397.75 253.78125 392.62541 253.78125 386.28125 C 253.78125 379.9371 247.20017 374.78125 239.09375 374.78125 z M 282.6875 374.78125 C 274.58108 374.78125 268.03125 379.9371 268.03125 386.28125 C 268.03125 392.62541 274.58108 397.75 282.6875 397.75 C 290.79392 397.75 297.375 392.62541 297.375 386.28125 C 297.375 379.9371 290.79392 374.78125 282.6875 374.78125 z M 326.3125 374.78125 C 318.20608 374.78125 311.625 379.9371 311.625 386.28125 C 311.625 392.62541 318.20608 397.75 326.3125 397.75 C 334.41892 397.75 340.96875 392.62541 340.96875 386.28125 C 340.96875 379.9371 334.41892 374.78125 326.3125 374.78125 z M 369.90625 374.78125 C 361.79983 374.78125 355.21875 379.9371 355.21875 386.28125 C 355.21875 392.62541 361.79983 397.75 369.90625 397.75 C 378.01267 397.75 384.5625 392.62541 384.5625 386.28125 C 384.5625 379.9371 378.01267 374.78125 369.90625 374.78125 z M 169.78125 407.875 C 161.67483 407.875 155.09375 413.03085 155.09375 419.375 C 155.09375 425.71916 161.67483 430.84375 169.78125 430.84375 C 177.88767 430.84375 184.4375 425.71916 184.4375 419.375 C 184.4375 413.03085 177.88767 407.875 169.78125 407.875 z M 213.375 407.875 C 205.26858 407.875 198.6875 413.03085 198.6875 419.375 C 198.6875 425.71916 205.26858 430.84375 213.375 430.84375 C 221.48142 430.84375 228.03125 425.71916 228.03125 419.375 C 228.03125 413.03085 221.48142 407.875 213.375 407.875 z M 256.96875 407.875 C 248.86233 407.875 242.28125 413.03085 242.28125 419.375 C 242.28125 425.71916 248.86233 430.84375 256.96875 430.84375 C 265.07517 430.84375 271.65625 425.71916 271.65625 419.375 C 271.65625 413.03085 265.07517 407.875 256.96875 407.875 z M 300.5625 407.875 C 292.45608 407.875 285.875 413.03085 285.875 419.375 C 285.875 425.71916 292.45608 430.84375 300.5625 430.84375 C 308.66892 430.84375 315.25 425.71916 315.25 419.375 C 315.25 413.03085 308.66892 407.875 300.5625 407.875 z M 344.15625 407.875 C 336.04983 407.875 329.5 413.03085 329.5 419.375 C 329.5 425.71916 336.04983 430.84375 344.15625 430.84375 C 352.26267 430.84375 358.84375 425.71916 358.84375 419.375 C 358.84375 413.03085 352.26267 407.875 344.15625 407.875 z M 387.78125 407.875 C 379.67483 407.875 373.09375 413.03085 373.09375 419.375 C 373.09375 425.71916 379.67483 430.84375 387.78125 430.84375 C 395.88767 430.84375 402.4375 425.71916 402.4375 419.375 C 402.4375 413.03085 395.88767 407.875 387.78125 407.875 z M 188.5 440.96875 C 181.94546 440.96875 176.65625 446.07416 176.65625 452.40625 C 176.65625 458.73833 181.94546 463.8125 188.5 463.8125 L 333.3125 463.8125 C 339.86704 463.8125 345.125 458.73833 345.125 452.40625 C 345.125 446.07416 339.86704 440.96875 333.3125 440.96875 L 188.5 440.96875 z "
       transform="translate(124.82366,237.97156)"
       id="rect3068" />
  </g>
</svg>
